<svg width="64" height="32" viewBox="0 0 64 32" fill="none" xmlns="http://www.w3.org/2000/svg">
<rect x="10" y="10" width="1" height="1" fill="#FFFFFF"/>
<rect x="11" y="10" width="1" height="1" fill="#FFFFFF"/>
<rect x="20" y="10" width="1" height="1" fill="#FFFFFF"/>
<rect x="21" y="10" width="1" height="1" fill="#FFFFFF"/>
<rect x="9" y="11" width="1" height="1" fill="#FFFFFF"/>
<rect x="10" y="11" width="1" height="1" fill="#FFFFFF"/>
<rect x="11" y="11" width="1" height="1" fill="#FFFFFF"/>
<rect x="12" y="11" width="1" height="1" fill="#FFFFFF"/>
<rect x="19" y="11" width="1" height="1" fill="#FFFFFF"/>
<rect x="20" y="11" width="1" height="1" fill="#FFFFFF"/>
<rect x="21" y="11" width="1" height="1" fill="#FFFFFF"/>
<rect x="22" y="11" width="1" height="1" fill="#FFFFFF"/>
<rect x="8" y="12" width="1" height="1" fill="#FFFFFF"/>
<rect x="9" y="12" width="1" height="1" fill="#FFFFFF"/>
<rect x="10" y="12" width="1" height="1" fill="#FFFFFF"/>
<rect x="11" y="12" width="1" height="1" fill="#FFFFFF"/>
<rect x="12" y="12" width="1" height="1" fill="#FFFFFF"/>
<rect x="13" y="12" width="1" height="1" fill="#FFFFFF"/>
<rect x="18" y="12" width="1" height="1" fill="#FFFFFF"/>
<rect x="19" y="12" width="1" height="1" fill="#FFFFFF"/>
<rect x="20" y="12" width="1" height="1" fill="#FFFFFF"/>
<rect x="21" y="12" width="1" height="1" fill="#FFFFFF"/>
<rect x="22" y="12" width="1" height="1" fill="#FFFFFF"/>
<rect x="23" y="12" width="1" height="1" fill="#FFFFFF"/>
<rect x="8" y="13" width="1" height="1" fill="#FFFFFF"/>
<rect x="9" y="13" width="1" height="1" fill="#FFFFFF"/>
<rect x="10" y="13" width="1" height="1" fill="#241A18"/>
<rect x="11" y="13" width="1" height="1" fill="#241A18"/>
<rect x="12" y="13" width="1" height="1" fill="#FFFFFF"/>
<rect x="13" y="13" width="1" height="1" fill="#FFFFFF"/>
<rect x="18" y="13" width="1" height="1" fill="#FFFFFF"/>
<rect x="19" y="13" width="1" height="1" fill="#FFFFFF"/>
<rect x="20" y="13" width="1" height="1" fill="#241A18"/>
<rect x="21" y="13" width="1" height="1" fill="#241A18"/>
<rect x="22" y="13" width="1" height="1" fill="#FFFFFF"/>
<rect x="23" y="13" width="1" height="1" fill="#FFFFFF"/>
<rect x="8" y="14" width="1" height="1" fill="#FFFFFF"/>
<rect x="9" y="14" width="1" height="1" fill="#FFFFFF"/>
<rect x="10" y="14" width="1" height="1" fill="#241A18"/>
<rect x="11" y="14" width="1" height="1" fill="#241A18"/>
<rect x="12" y="14" width="1" height="1" fill="#FFFFFF"/>
<rect x="13" y="14" width="1" height="1" fill="#FFFFFF"/>
<rect x="18" y="14" width="1" height="1" fill="#FFFFFF"/>
<rect x="19" y="14" width="1" height="1" fill="#FFFFFF"/>
<rect x="20" y="14" width="1" height="1" fill="#241A18"/>
<rect x="21" y="14" width="1" height="1" fill="#241A18"/>
<rect x="22" y="14" width="1" height="1" fill="#FFFFFF"/>
<rect x="23" y="14" width="1" height="1" fill="#FFFFFF"/>
<rect x="8" y="15" width="1" height="1" fill="#FFFFFF"/>
<rect x="9" y="15" width="1" height="1" fill="#FFFFFF"/>
<rect x="10" y="15" width="1" height="1" fill="#241A18"/>
<rect x="11" y="15" width="1" height="1" fill="#241A18"/>
<rect x="12" y="15" width="1" height="1" fill="#FFFFFF"/>
<rect x="13" y="15" width="1" height="1" fill="#FFFFFF"/>
<rect x="18" y="15" width="1" height="1" fill="#FFFFFF"/>
<rect x="19" y="15" width="1" height="1" fill="#FFFFFF"/>
<rect x="20" y="15" width="1" height="1" fill="#241A18"/>
<rect x="21" y="15" width="1" height="1" fill="#241A18"/>
<rect x="22" y="15" width="1" height="1" fill="#FFFFFF"/>
<rect x="23" y="15" width="1" height="1" fill="#FFFFFF"/>
<rect x="9" y="16" width="1" height="1" fill="#FFFFFF"/>
<rect x="10" y="16" width="1" height="1" fill="#241A18"/>
<rect x="11" y="16" width="1" height="1" fill="#241A18"/>
<rect x="12" y="16" width="1" height="1" fill="#FFFFFF"/>
<rect x="19" y="16" width="1" height="1" fill="#FFFFFF"/>
<rect x="20" y="16" width="1" height="1" fill="#241A18"/>
<rect x="21" y="16" width="1" height="1" fill="#241A18"/>
<rect x="22" y="16" width="1" height="1" fill="#FFFFFF"/>
<rect x="10" y="17" width="1" height="1" fill="#FFFFFF"/>
<rect x="11" y="17" width="1" height="1" fill="#FFFFFF"/>
<rect x="20" y="17" width="1" height="1" fill="#FFFFFF"/>
<rect x="21" y="17" width="1" height="1" fill="#FFFFFF"/>
<rect x="42" y="10" width="1" height="1" fill="#FFFFFF"/>
<rect x="43" y="10" width="1" height="1" fill="#FFFFFF"/>
<rect x="52" y="10" width="1" height="1" fill="#FFFFFF"/>
<rect x="53" y="10" width="1" height="1" fill="#FFFFFF"/>
<rect x="41" y="11" width="1" height="1" fill="#FFFFFF"/>
<rect x="42" y="11" width="1" height="1" fill="#FFFFFF"/>
<rect x="43" y="11" width="1" height="1" fill="#FFFFFF"/>
<rect x="44" y="11" width="1" height="1" fill="#FFFFFF"/>
<rect x="51" y="11" width="1" height="1" fill="#FFFFFF"/>
<rect x="52" y="11" width="1" height="1" fill="#FFFFFF"/>
<rect x="53" y="11" width="1" height="1" fill="#FFFFFF"/>
<rect x="54" y="11" width="1" height="1" fill="#FFFFFF"/>
<rect x="40" y="12" width="1" height="1" fill="#FFFFFF"/>
<rect x="41" y="12" width="1" height="1" fill="#FFFFFF"/>
<rect x="42" y="12" width="1" height="1" fill="#FFFFFF"/>
<rect x="43" y="12" width="1" height="1" fill="#FFFFFF"/>
<rect x="44" y="12" width="1" height="1" fill="#FFFFFF"/>
<rect x="45" y="12" width="1" height="1" fill="#FFFFFF"/>
<rect x="50" y="12" width="1" height="1" fill="#FFFFFF"/>
<rect x="51" y="12" width="1" height="1" fill="#FFFFFF"/>
<rect x="52" y="12" width="1" height="1" fill="#FFFFFF"/>
<rect x="53" y="12" width="1" height="1" fill="#FFFFFF"/>
<rect x="54" y="12" width="1" height="1" fill="#FFFFFF"/>
<rect x="55" y="12" width="1" height="1" fill="#FFFFFF"/>
<rect x="40" y="13" width="1" height="1" fill="#FFFFFF"/>
<rect x="41" y="13" width="1" height="1" fill="#FFFFFF"/>
<rect x="42" y="13" width="1" height="1" fill="#241A18"/>
<rect x="43" y="13" width="1" height="1" fill="#241A18"/>
<rect x="44" y="13" width="1" height="1" fill="#FFFFFF"/>
<rect x="45" y="13" width="1" height="1" fill="#FFFFFF"/>
<rect x="50" y="13" width="1" height="1" fill="#FFFFFF"/>
<rect x="51" y="13" width="1" height="1" fill="#FFFFFF"/>
<rect x="52" y="13" width="1" height="1" fill="#241A18"/>
<rect x="53" y="13" width="1" height="1" fill="#241A18"/>
<rect x="54" y="13" width="1" height="1" fill="#FFFFFF"/>
<rect x="55" y="13" width="1" height="1" fill="#FFFFFF"/>
<rect x="40" y="14" width="1" height="1" fill="#FFFFFF"/>
<rect x="41" y="14" width="1" height="1" fill="#FFFFFF"/>
<rect x="42" y="14" width="1" height="1" fill="#241A18"/>
<rect x="43" y="14" width="1" height="1" fill="#241A18"/>
<rect x="44" y="14" width="1" height="1" fill="#FFFFFF"/>
<rect x="45" y="14" width="1" height="1" fill="#FFFFFF"/>
<rect x="50" y="14" width="1" height="1" fill="#FFFFFF"/>
<rect x="51" y="14" width="1" height="1" fill="#FFFFFF"/>
<rect x="52" y="14" width="1" height="1" fill="#241A18"/>
<rect x="53" y="14" width="1" height="1" fill="#241A18"/>
<rect x="54" y="14" width="1" height="1" fill="#FFFFFF"/>
<rect x="55" y="14" width="1" height="1" fill="#FFFFFF"/>
<rect x="40" y="15" width="1" height="1" fill="#FFFFFF"/>
<rect x="41" y="15" width="1" height="1" fill="#FFFFFF"/>
<rect x="42" y="15" width="1" height="1" fill="#241A18"/>
<rect x="43" y="15" width="1" height="1" fill="#241A18"/>
<rect x="44" y="15" width="1" height="1" fill="#FFFFFF"/>
<rect x="45" y="15" width="1" height="1" fill="#FFFFFF"/>
<rect x="50" y="15" width="1" height="1" fill="#FFFFFF"/>
<rect x="51" y="15" width="1" height="1" fill="#FFFFFF"/>
<rect x="52" y="15" width="1" height="1" fill="#241A18"/>
<rect x="53" y="15" width="1" height="1" fill="#241A18"/>
<rect x="54" y="15" width="1" height="1" fill="#FFFFFF"/>
<rect x="55" y="15" width="1" height="1" fill="#FFFFFF"/>
<rect x="41" y="16" width="1" height="1" fill="#FFFFFF"/>
<rect x="42" y="16" width="1" height="1" fill="#241A18"/>
<rect x="43" y="16" width="1" height="1" fill="#241A18"/>
<rect x="44" y="16" width="1" height="1" fill="#FFFFFF"/>
<rect x="51" y="16" width="1" height="1" fill="#FFFFFF"/>
<rect x="52" y="16" width="1" height="1" fill="#241A18"/>
<rect x="53" y="16" width="1" height="1" fill="#241A18"/>
<rect x="54" y="16" width="1" height="1" fill="#FFFFFF"/>
<rect x="42" y="17" width="1" height="1" fill="#FFFFFF"/>
<rect x="43" y="17" width="1" height="1" fill="#FFFFFF"/>
<rect x="52" y="17" width="1" height="1" fill="#FFFFFF"/>
<rect x="53" y="17" width="1" height="1" fill="#FFFFFF"/>
</svg>
